<mxfile host="app.diagrams.net" agent="Mozilla/5.0 (Macintosh; Intel Mac OS X 10_15_7) AppleWebKit/605.1.15 (KHTML, like Gecko) Version/17.6 Safari/605.1.15" version="24.7.14">
  <diagram name="Page-1" id="mfVh5fejPdQT7Dfiq_9x">
    <mxGraphModel dx="764" dy="503" grid="1" gridSize="10" guides="1" tooltips="1" connect="1" arrows="1" fold="1" page="1" pageScale="1" pageWidth="827" pageHeight="1169" math="0" shadow="0">
      <root>
        <mxCell id="0" />
        <mxCell id="1" parent="0" />
        <mxCell id="J24OWx_b6ucOkYwd1uf5-1" value="Online Shopping System" style="text;html=1;align=center;verticalAlign=middle;resizable=0;points=[];autosize=1;strokeColor=#b85450;fillColor=#f8cecc;" vertex="1" parent="1">
          <mxGeometry x="30" y="78" width="160" height="30" as="geometry" />
        </mxCell>
        <mxCell id="J24OWx_b6ucOkYwd1uf5-26" style="edgeStyle=orthogonalEdgeStyle;rounded=0;orthogonalLoop=1;jettySize=auto;html=1;" edge="1" parent="1" source="J24OWx_b6ucOkYwd1uf5-3">
          <mxGeometry relative="1" as="geometry">
            <mxPoint x="410" y="370" as="targetPoint" />
          </mxGeometry>
        </mxCell>
        <mxCell id="J24OWx_b6ucOkYwd1uf5-3" value="Customer" style="ellipse;whiteSpace=wrap;html=1;aspect=fixed;fillColor=#a20025;fontColor=#ffffff;strokeColor=#6F0000;" vertex="1" parent="1">
          <mxGeometry x="20" y="130" width="80" height="80" as="geometry" />
        </mxCell>
        <mxCell id="J24OWx_b6ucOkYwd1uf5-4" value="Register Account&amp;nbsp;" style="rounded=1;whiteSpace=wrap;html=1;fillColor=#0050ef;fontColor=#ffffff;strokeColor=#001DBC;" vertex="1" parent="1">
          <mxGeometry x="20" y="250" width="120" height="60" as="geometry" />
        </mxCell>
        <mxCell id="J24OWx_b6ucOkYwd1uf5-5" value="Track Order" style="rounded=1;whiteSpace=wrap;html=1;fillColor=#60a917;fontColor=#ffffff;strokeColor=#2D7600;" vertex="1" parent="1">
          <mxGeometry x="190" y="250" width="120" height="60" as="geometry" />
        </mxCell>
        <mxCell id="J24OWx_b6ucOkYwd1uf5-9" value="" style="edgeStyle=orthogonalEdgeStyle;rounded=0;orthogonalLoop=1;jettySize=auto;html=1;" edge="1" parent="1" source="J24OWx_b6ucOkYwd1uf5-6" target="J24OWx_b6ucOkYwd1uf5-8">
          <mxGeometry relative="1" as="geometry" />
        </mxCell>
        <mxCell id="J24OWx_b6ucOkYwd1uf5-6" value="Login" style="rounded=1;whiteSpace=wrap;html=1;fillColor=#a20025;fontColor=#ffffff;strokeColor=#6F0000;" vertex="1" parent="1">
          <mxGeometry x="20" y="350" width="120" height="60" as="geometry" />
        </mxCell>
        <mxCell id="J24OWx_b6ucOkYwd1uf5-11" value="" style="edgeStyle=orthogonalEdgeStyle;rounded=0;orthogonalLoop=1;jettySize=auto;html=1;" edge="1" parent="1" source="J24OWx_b6ucOkYwd1uf5-7" target="J24OWx_b6ucOkYwd1uf5-10">
          <mxGeometry relative="1" as="geometry" />
        </mxCell>
        <mxCell id="J24OWx_b6ucOkYwd1uf5-28" style="edgeStyle=orthogonalEdgeStyle;rounded=0;orthogonalLoop=1;jettySize=auto;html=1;" edge="1" parent="1" source="J24OWx_b6ucOkYwd1uf5-7">
          <mxGeometry relative="1" as="geometry">
            <mxPoint x="410" y="290" as="targetPoint" />
          </mxGeometry>
        </mxCell>
        <mxCell id="J24OWx_b6ucOkYwd1uf5-7" value="Checkout&amp;nbsp;" style="rounded=1;whiteSpace=wrap;html=1;fillColor=#1ba1e2;fontColor=#ffffff;strokeColor=#006EAF;" vertex="1" parent="1">
          <mxGeometry x="190" y="350" width="120" height="60" as="geometry" />
        </mxCell>
        <mxCell id="J24OWx_b6ucOkYwd1uf5-13" value="" style="edgeStyle=orthogonalEdgeStyle;rounded=0;orthogonalLoop=1;jettySize=auto;html=1;" edge="1" parent="1" source="J24OWx_b6ucOkYwd1uf5-8" target="J24OWx_b6ucOkYwd1uf5-12">
          <mxGeometry relative="1" as="geometry" />
        </mxCell>
        <mxCell id="J24OWx_b6ucOkYwd1uf5-8" value="View Products" style="whiteSpace=wrap;html=1;rounded=1;fillColor=#008a00;fontColor=#ffffff;strokeColor=#005700;" vertex="1" parent="1">
          <mxGeometry x="20" y="490" width="120" height="60" as="geometry" />
        </mxCell>
        <mxCell id="J24OWx_b6ucOkYwd1uf5-23" style="edgeStyle=orthogonalEdgeStyle;rounded=0;orthogonalLoop=1;jettySize=auto;html=1;" edge="1" parent="1" source="J24OWx_b6ucOkYwd1uf5-10" target="J24OWx_b6ucOkYwd1uf5-20">
          <mxGeometry relative="1" as="geometry" />
        </mxCell>
        <mxCell id="J24OWx_b6ucOkYwd1uf5-10" value="Make Purchase" style="whiteSpace=wrap;html=1;rounded=1;fillColor=#d80073;fontColor=#ffffff;strokeColor=#A50040;" vertex="1" parent="1">
          <mxGeometry x="190" y="490" width="120" height="60" as="geometry" />
        </mxCell>
        <mxCell id="J24OWx_b6ucOkYwd1uf5-15" value="" style="edgeStyle=orthogonalEdgeStyle;rounded=0;orthogonalLoop=1;jettySize=auto;html=1;" edge="1" parent="1" source="J24OWx_b6ucOkYwd1uf5-12" target="J24OWx_b6ucOkYwd1uf5-14">
          <mxGeometry relative="1" as="geometry" />
        </mxCell>
        <mxCell id="J24OWx_b6ucOkYwd1uf5-12" value="Search Products" style="whiteSpace=wrap;html=1;rounded=1;fillColor=#e51400;fontColor=#ffffff;strokeColor=#B20000;" vertex="1" parent="1">
          <mxGeometry x="20" y="630" width="120" height="60" as="geometry" />
        </mxCell>
        <mxCell id="J24OWx_b6ucOkYwd1uf5-17" value="" style="edgeStyle=orthogonalEdgeStyle;rounded=0;orthogonalLoop=1;jettySize=auto;html=1;" edge="1" parent="1" source="J24OWx_b6ucOkYwd1uf5-14" target="J24OWx_b6ucOkYwd1uf5-16">
          <mxGeometry relative="1" as="geometry" />
        </mxCell>
        <mxCell id="J24OWx_b6ucOkYwd1uf5-24" style="edgeStyle=orthogonalEdgeStyle;rounded=0;orthogonalLoop=1;jettySize=auto;html=1;" edge="1" parent="1" source="J24OWx_b6ucOkYwd1uf5-14">
          <mxGeometry relative="1" as="geometry">
            <mxPoint x="250" y="790" as="targetPoint" />
          </mxGeometry>
        </mxCell>
        <mxCell id="J24OWx_b6ucOkYwd1uf5-14" value="Add to Cart&amp;nbsp;" style="whiteSpace=wrap;html=1;rounded=1;fillColor=#76608a;fontColor=#ffffff;strokeColor=#432D57;" vertex="1" parent="1">
          <mxGeometry x="20" y="770" width="120" height="60" as="geometry" />
        </mxCell>
        <mxCell id="J24OWx_b6ucOkYwd1uf5-19" value="" style="edgeStyle=orthogonalEdgeStyle;rounded=0;orthogonalLoop=1;jettySize=auto;html=1;" edge="1" parent="1" source="J24OWx_b6ucOkYwd1uf5-16" target="J24OWx_b6ucOkYwd1uf5-18">
          <mxGeometry relative="1" as="geometry" />
        </mxCell>
        <mxCell id="J24OWx_b6ucOkYwd1uf5-16" value="View Cart" style="whiteSpace=wrap;html=1;rounded=1;fillColor=#e3c800;fontColor=#000000;strokeColor=#B09500;" vertex="1" parent="1">
          <mxGeometry x="20" y="910" width="120" height="60" as="geometry" />
        </mxCell>
        <mxCell id="J24OWx_b6ucOkYwd1uf5-25" style="edgeStyle=orthogonalEdgeStyle;rounded=0;orthogonalLoop=1;jettySize=auto;html=1;" edge="1" parent="1" source="J24OWx_b6ucOkYwd1uf5-18">
          <mxGeometry relative="1" as="geometry">
            <mxPoint x="280" y="1040" as="targetPoint" />
          </mxGeometry>
        </mxCell>
        <mxCell id="J24OWx_b6ucOkYwd1uf5-18" value="Payemnent Gateway&lt;div&gt;(Process Payment&amp;nbsp;&lt;/div&gt;" style="whiteSpace=wrap;html=1;rounded=1;fillColor=#fa6800;fontColor=#000000;strokeColor=#C73500;" vertex="1" parent="1">
          <mxGeometry x="20" y="1050" width="120" height="60" as="geometry" />
        </mxCell>
        <mxCell id="J24OWx_b6ucOkYwd1uf5-22" value="" style="edgeStyle=orthogonalEdgeStyle;rounded=0;orthogonalLoop=1;jettySize=auto;html=1;" edge="1" parent="1" source="J24OWx_b6ucOkYwd1uf5-20" target="J24OWx_b6ucOkYwd1uf5-21">
          <mxGeometry relative="1" as="geometry" />
        </mxCell>
        <mxCell id="J24OWx_b6ucOkYwd1uf5-20" value="[Admin]" style="rounded=0;whiteSpace=wrap;html=1;fillColor=#a0522d;fontColor=#ffffff;strokeColor=#6D1F00;" vertex="1" parent="1">
          <mxGeometry x="220" y="1100" width="120" height="60" as="geometry" />
        </mxCell>
        <mxCell id="J24OWx_b6ucOkYwd1uf5-21" value="Manage Products&lt;div&gt;Manage Users&lt;/div&gt;" style="whiteSpace=wrap;html=1;rounded=0;fillColor=#fa6800;fontColor=#000000;strokeColor=#C73500;" vertex="1" parent="1">
          <mxGeometry x="220" y="1240" width="120" height="60" as="geometry" />
        </mxCell>
      </root>
    </mxGraphModel>
  </diagram>
</mxfile>
